<svg width="19" height="20" viewBox="0 0 19 20" fill="none" xmlns="http://www.w3.org/2000/svg">
<path fill-rule="evenodd" clip-rule="evenodd" d="M13.3727 19.0001H5.55552C2.68408 19.0001 0.481222 17.9629 1.10694 13.7886L1.83551 8.13147C2.22122 6.04861 3.5498 5.25146 4.71551 5.25146H14.247C15.4298 5.25146 16.6812 6.10861 17.127 8.13147L17.8555 13.7886C18.387 17.4915 16.2441 19.0001 13.3727 19.0001Z" stroke="#828282" stroke-width="1.2" stroke-linecap="round" stroke-linejoin="round"/>
<path d="M13.501 5.04576C13.501 2.81137 11.6897 1.00004 9.45532 1.00004V1.00004C8.37936 0.995477 7.34591 1.41971 6.58347 2.17892C5.82104 2.93814 5.39245 3.96979 5.39246 5.04576H5.39246" stroke="#828282" stroke-width="1.2" stroke-linecap="round" stroke-linejoin="round"/>
<path d="M12.2327 9.2628H12.1899" stroke="#828282" stroke-width="1.2" stroke-linecap="round" stroke-linejoin="round"/>
<path d="M6.77263 9.2628H6.72978" stroke="#828282" stroke-width="1.2" stroke-linecap="round" stroke-linejoin="round"/>
</svg>
