<?xml version="1.0" encoding="UTF-8"?>
<svg width="21" height="21" viewBox="0 0 21 21" fill="none" xmlns="http://www.w3.org/2000/svg">
<path d="M-8.25017e-05 9.79934C-8.24828e-05 10.233 -8.24636e-05 10.6708 -8.24447e-05 11.1046C0.0121933 11.17 0.0285602 11.2355 0.0367427 11.3009C0.102209 11.7387 0.139032 12.1806 0.229046 12.6102C0.728218 14.9302 1.87386 16.8818 3.69051 18.4039C6.29275 20.5806 9.28777 21.3498 12.6142 20.6747C15.3637 20.1101 17.5364 18.6126 19.1116 16.2967C20.6705 14.0096 21.2065 11.4687 20.7687 8.73962C20.4537 6.75522 19.6067 5.00812 18.2647 3.51469C16.6485 1.71031 14.6477 0.581042 12.2582 0.159611C11.8777 0.090054 11.4931 0.0532307 11.1085 4.0483e-05C10.6748 4.0502e-05 10.237 4.05211e-05 9.80331 4.05401e-05C9.75012 0.0123143 9.69693 0.0286813 9.64374 0.0327726C8.0153 0.15552 6.49323 0.62605 5.10619 1.48119C2.40576 3.14236 0.744584 5.53184 0.15949 8.6537C0.0899329 9.03013 0.0531077 9.41473 -8.25017e-05 9.79934ZM19.7008 10.4581C19.6926 15.5644 15.5479 19.705 10.4498 19.6968C5.33532 19.6887 1.20693 15.548 1.21102 10.4294C1.21511 5.34772 5.37214 1.20705 10.4621 1.21114C15.5642 1.21114 19.709 5.35999 19.7008 10.4581Z" fill="#828282"/>
<path d="M4.62744 15.6135C4.62744 16.1085 5.07342 16.399 5.47849 16.219C5.67079 16.1331 5.85082 16.0267 6.03903 15.9244C8.08481 14.8238 10.1347 13.7232 12.1846 12.6266C12.3769 12.5243 12.5201 12.3893 12.6265 12.1929C13.8089 9.98756 14.9955 7.78629 16.1779 5.58503C16.3416 5.27817 16.317 5.00812 16.1043 4.79945C15.8997 4.59897 15.6338 4.57032 15.3351 4.73399C13.1133 5.92463 10.8875 7.11528 8.66991 8.3182C8.5308 8.39594 8.39577 8.52687 8.31803 8.67007C7.11921 10.8877 5.92856 13.1094 4.73791 15.3311C4.68063 15.4334 4.6479 15.5562 4.62744 15.6135ZM10.998 11.8901C9.5946 12.6471 8.17892 13.404 6.76733 14.165C6.75915 14.1569 6.74687 14.1446 6.73869 14.1364C7.49972 12.7248 8.25666 11.3132 9.0136 9.90573C9.68462 10.5727 10.3352 11.2232 10.998 11.8901ZM9.91784 9.00967C11.3212 8.25683 12.7328 7.49579 14.1444 6.73886C14.1526 6.74704 14.1608 6.75931 14.169 6.7675C13.4079 8.17909 12.651 9.59477 11.8982 10.9941C11.2312 10.3272 10.5807 9.67251 9.91784 9.00967Z" fill="#828282"/>
</svg>
