<svg width="23" height="12" viewBox="0 0 23 12" fill="none" xmlns="http://www.w3.org/2000/svg">
<path d="M11.0558 11.5686C10.7817 11.5686 10.5077 11.5686 10.2336 11.5686C10.1995 11.5635 10.1653 11.5551 10.131 11.5537C9.27152 11.5163 8.42847 11.3774 7.60117 11.1427C6.12426 10.7236 4.78476 10.0267 3.54591 9.12943C2.29062 8.2202 1.19024 7.14591 0.186138 5.96973C0.12627 5.89971 0.0620251 5.83337 -0.000118256 5.76545V5.74794C0.00985909 5.73744 0.0203629 5.72746 0.0296402 5.71626C1.60966 3.82534 3.4899 2.31219 5.71586 1.2449C7.55426 0.363336 9.49086 -0.0798969 11.5386 0.0120058C12.593 0.0594444 13.621 0.249901 14.6262 0.56727C16.08 1.02626 17.4174 1.72087 18.6743 2.57617C19.9171 3.42202 21.0485 4.40056 22.1072 5.46506C22.2012 5.55959 22.2938 5.65551 22.3882 5.75197C22.3609 5.78243 22.3399 5.80641 22.3182 5.82987C21.7836 6.40491 21.2083 6.93707 20.606 7.44C19.2035 8.6111 17.6891 9.60767 16.0158 10.353C14.5565 11.003 13.0383 11.4294 11.438 11.5387C11.3105 11.5474 11.1833 11.5586 11.0558 11.5686ZM11.0898 0.979693C11.0082 0.979693 10.9265 0.976193 10.8451 0.98057C10.7346 0.986522 10.6242 0.995624 10.5142 1.00823C9.39843 1.13724 8.41009 1.56349 7.61098 2.35315C6.20986 3.73747 5.79568 5.38768 6.37056 7.2779C7.0902 9.15288 8.46016 10.2363 10.4349 10.5141C11.9363 10.7252 13.2827 10.3039 14.4321 9.3078C16.032 7.92139 16.5225 5.62961 15.5788 3.74867C14.6607 1.91832 13.1041 1.06284 11.0898 0.979693Z" fill="#A5A5A5"/>
<path d="M10.9408 8.43537C9.86721 8.43782 8.80219 7.70068 8.4211 6.61938C7.99993 5.4243 8.46767 4.13014 9.5677 3.44726C10.8223 2.66828 12.5203 3.02293 13.3479 4.23657C14.2591 5.57257 13.7847 7.38698 12.3323 8.12413C11.9272 8.32964 11.4976 8.43082 10.941 8.43555L10.9408 8.43537Z" fill="#A5A5A5"/>
</svg>
