<?xml version="1.0" encoding="UTF-8"?>
<svg width="34" height="41" viewBox="0 0 34 41" fill="none" xmlns="http://www.w3.org/2000/svg">
<path d="M8.8679 10.7936C10.3003 9.49137 12.0365 8.79687 14.0332 8.79687C14.2937 8.79687 14.6843 8.84028 15.1618 8.88368V12.6166H14.0332H13.9898C12.9481 12.6166 12.0365 13.0073 11.2986 13.7452C10.5607 14.4831 10.1701 15.3946 10.1701 16.4364H13.9898V20.1259H17.7227C17.7227 20.8204 17.8964 21.4281 18.2436 21.9923C18.5909 22.5566 19.0249 23.0341 19.6326 23.3379C20.1969 23.6852 20.848 23.8154 21.4991 23.8154C22.5408 23.8154 23.4524 23.4682 24.1903 22.7302C24.9282 21.9923 25.3188 21.1242 25.3188 20.0825H25.2754V2.98045V0.462891L19.5892 6.01888L0.0998535 0.983764C0.0998535 0.679921 0.0998535 35.2746 0.0998535 35.2746L6.39374 33.8856V15.6984C6.61077 13.7886 7.43549 12.1391 8.8679 10.7936Z" fill="#EF3F35"/>
<path d="M29.1819 8.71021V20.0826C29.1819 21.5584 28.7912 22.904 28.0533 24.1628C27.272 25.4216 26.2737 26.3331 24.9715 26.8974C23.8863 27.3748 22.8012 27.5919 21.716 27.6353C20.6309 27.6787 19.6325 27.4617 18.721 27.071C17.8095 26.6804 17.0281 26.1161 16.2902 25.465C15.5523 24.7705 14.9881 23.9892 14.5974 23.0342C14.2067 22.1227 13.9897 21.2112 13.9897 20.2128H10.2568V20.2562H10.2134V40.2231L18.4605 31.0644L33.9999 27.5919V9.92558L29.1819 8.71021Z" fill="#EF3F35"/>
</svg>
