<?xml version="1.0" encoding="utf-8"?>
<!-- Generator: Adobe Illustrator 25.2.1, SVG Export Plug-In . SVG Version: 6.00 Build 0)  -->
<svg version="1.0" id="Layer_1" xmlns="http://www.w3.org/2000/svg" xmlns:xlink="http://www.w3.org/1999/xlink" x="0px" y="0px"
	 viewBox="0 0 256 81" style="enable-background:new 0 0 256 81;" xml:space="preserve">
<style type="text/css">
	.st0{fill:#F7981D;}
	.st1{fill:#EF4136;}
</style>
<path class="st0" d="M154.9,15.1c-1.1,0-2,0.4-2.8,1.2c-0.8,0.8-1.1,1.6-1.1,2.8c0,1.1,0.4,2,1.1,2.8c0.8,0.8,1.7,1.1,2.8,1.1
	c1.1,0,1.9-0.4,2.7-1.1c0.8-0.8,1.2-1.7,1.2-2.8s-0.4-2-1.2-2.8C156.9,15.4,156.1,15.1,154.9,15.1z"/>
<path class="st0" d="M154.9,24.6H151v35h0.1c-0.1,2.2-0.8,4-2.4,5.5c-1.5,1.4-3.3,2.2-5.5,2.2c-0.6,0-1.2-0.1-1.8-0.2v7.9
	c0.7,0.1,1.4,0.1,2.1,0.1c2.2,0,4.4-0.5,6.6-1.5c2.7-1.2,4.8-3,6.4-5.6c1.6-2.6,2.4-5.4,2.4-8.4V28.6c0-1.1-0.4-2.1-1.2-2.8
	S156.1,24.6,154.9,24.6z"/>
<path class="st0" d="M186.8,26.8c-2.5-1.4-5.1-2.1-7.8-2.1c-4.3,0-7.9,1.5-11,4.5s-4.6,6.7-4.6,11s1.5,8,4.6,11
	c3.1,3.1,6.7,4.6,11,4.6c2.9,0,5.6-0.8,8.2-2.4c0.3,0.7,0.8,1.2,1.4,1.7c0.6,0.5,1.3,0.6,2.1,0.6h3.9V24.6h-7.8v2.2H186.8z
	 M186.8,41c-0.2,2-1.1,3.6-2.6,5c-1.5,1.3-3.2,2-5.2,2c-2.1,0-4-0.8-5.6-2.3c-1.5-1.6-2.3-3.4-2.3-5.6s0.8-4,2.3-5.6
	c1.6-1.5,3.4-2.3,5.6-2.3c2,0,3.8,0.7,5.2,2c1.5,1.3,2.4,3,2.6,5V41z"/>
<path class="st0" d="M253.1,32.5c-1.4-2.3-3.2-4.2-5.4-5.6c-0.3-0.2-0.6-0.4-0.9-0.5c-0.8-0.5-1.4-0.8-2-0.9c-0.2,0-0.4-0.2-0.9-0.3
	c-1.3-0.4-2.8-0.6-4.3-0.6h-0.1c-0.4,0-0.9,0-1.6,0.1c-0.6,0-1.1,0.1-1.5,0.2c-2,0.4-3.8,1.1-5.5,2.2c-1.1,0.8-2.1,1.7-3.1,2.9
	c-1.8-2.1-3.9-3.7-6.5-4.6c-2.5-0.8-4.9-1.1-7.1-0.8s-4.3,1-6.2,2.2c-0.2-0.5-0.4-0.9-0.8-1.2c-0.3-0.4-0.8-0.6-1.2-0.8
	c-0.5-0.2-1-0.3-1.5-0.3h-3.9v27.3c0,0.5,0.1,1,0.3,1.5c0.2,0.5,0.4,0.9,0.8,1.2c0.3,0.3,0.8,0.6,1.2,0.8s1,0.3,1.5,0.3h3.9V40.6
	c0-2,0.6-3.8,1.9-5.4c1.2-1.6,2.8-2.5,4.6-2.8c2.4-0.4,4.6,0.2,6.4,1.8c1.8,1.5,2.8,3.5,2.8,5.9c0,0.1,0,0.2,0,0.3v15.4h7.8V40.8
	c0-0.1,0-0.1,0-0.2c0,0,0-0.1,0-0.2v-0.4c0-2.4,0.9-4.4,2.8-6c1.8-1.6,4-2.2,6.4-1.8c1.2,0.2,2.3,0.8,3.3,1.5s1.8,1.8,2.3,3
	c0.6,1.1,0.8,2.4,0.8,3.6v11.2c0,1,0.4,2,1.1,2.8s1.7,1.1,2.8,1.1h3.9V40.2C255.1,37.4,254.4,34.8,253.1,32.5z"/>
<path class="st1" d="M81.4,32.2c-2.2,0-4,0.8-5.5,2.3c-1.5,1.5-2.3,3.4-2.3,5.5c0,2.2,0.8,4,2.3,5.5c1.5,1.5,3.3,2.3,5.5,2.3
	s4-0.8,5.5-2.3c1.5-1.5,2.3-3.4,2.3-5.5c0-2.1-0.8-4-2.3-5.5C85.4,33,83.6,32.2,81.4,32.2z"/>
<path class="st1" d="M48.3,32.2c-2.1,0-4,0.8-5.5,2.3c-1.5,1.5-2.3,3.4-2.3,5.5c0,2.2,0.8,4,2.3,5.5c1.5,1.5,3.4,2.3,5.5,2.3
	c2.2,0,4-0.8,5.5-2.3c1.5-1.5,2.3-3.4,2.3-5.5c0-2.1-0.8-4-2.3-5.5C52.3,33,50.5,32.2,48.3,32.2z"/>
<path class="st1" d="M120,33.2c-1.2-0.7-2.4-1-3.9-1c-1.4,0-2.7,0.3-3.9,1c-1.2,0.7-2.1,1.7-2.8,2.9c-0.7,1.2-1,2.5-1,3.9
	c0,2.2,0.8,4,2.3,5.5c1.5,1.6,3.3,2.3,5.6,2.3c2.2,0,3.9-0.8,5.4-2.2s2.3-3.3,2.3-5.4v-0.5c0-1.4-0.4-2.6-1.1-3.8
	C122.1,34.8,121.2,34,120,33.2z"/>
<path class="st1" d="M131.7,13.8v38c0,1-0.4,2-1.1,2.8c-0.8,0.8-1.7,1.2-2.8,1.2h-3.9v-2.2c-2.5,1.5-5.1,2.2-7.8,2.2
	c-4.3,0-7.9-1.5-11-4.5c-3-3.1-4.5-6.8-4.5-11.1s1.5-8,4.5-11c3.1-3.1,6.7-4.6,11-4.6c2.8,0,5.3,0.7,7.8,2.2V0l-16.2,10.4L0,0.6
	c0,0.6,0,69.9,0,69.9l12.8-2.8V30.8c0.4-4,2.1-7.3,5.1-10c3-2.7,6.5-4,10.5-4c0.6,0,1.3,0,2.4,0.2v7.6h-2.3h-0.1
	c-2.1,0-4,0.8-5.5,2.2s-2.3,3.3-2.3,5.5h7.8V40h-7.8v0.1h-0.1V81l16.8-14.9l82.1-3.2l8.6-0.4l8-0.3l5.4-0.2V59v-1.5V16.1L131.7,13.8
	z M59.3,51.1c-3,3.1-6.8,4.6-11,4.6s-8-1.5-11-4.6c-3-3-4.5-6.8-4.5-11s1.5-8,4.5-11c3.1-3,6.8-4.5,11-4.5s8,1.5,11,4.5
	c3.1,3,4.6,6.7,4.6,11C64,44.3,62.4,48,59.3,51.1z M92.4,51.1c-3,3.1-6.8,4.6-11,4.6c-4.3,0-8-1.5-11.1-4.6c-3-3-4.5-6.8-4.5-11
	s1.5-8,4.5-11c3.1-3,6.8-4.5,11.1-4.5c4.3,0,8,1.5,11,4.5c3.1,3,4.6,6.7,4.6,11S95.5,48,92.4,51.1z"/>
</svg>
