<?xml version="1.0" encoding="UTF-8"?>
<svg width="18" height="18" viewBox="0 0 18 18" fill="none" xmlns="http://www.w3.org/2000/svg">
<path d="M13.5703 9.42115L13.5077 9.52356C13.4824 9.50809 13.4561 9.49085 13.4284 9.47272C13.4135 9.46291 13.3981 9.45284 13.3823 9.44264L13.27 9.37032L13.3539 9.2664C15.3904 6.74171 14.7904 3.29863 12.6698 1.4733C11.6081 0.563124 10.244 0.0813473 8.84471 0.122447C7.44543 0.163548 6.11202 0.724592 5.10578 1.69556C4.09954 2.66651 3.49302 3.97738 3.40499 5.37124C3.31696 6.76511 3.75377 8.14156 4.62988 9.23086L4.70713 9.32691L4.60905 9.40157C4.42993 9.53792 4.25069 9.66737 4.07368 9.7952C3.70852 10.0589 3.35285 10.3158 3.02728 10.6123C1.31366 12.1733 0.353349 14.1177 0.152219 16.4325L0.152212 16.4326C0.131391 16.6701 0.121511 16.91 0.119993 17.1516C0.117696 17.5557 0.407756 17.857 0.796405 17.8717C1.16056 17.8855 1.46677 17.606 1.51053 17.2005L1.51054 17.2005C1.52794 17.04 1.54184 16.876 1.55589 16.7103C1.59278 16.275 1.63066 15.8282 1.73551 15.4026L1.73553 15.4025C2.29241 13.1479 3.64388 11.5054 5.71567 10.465L5.71568 10.465C5.77707 10.4342 5.84856 10.434 5.90224 10.4411C5.9587 10.4485 6.01911 10.4671 6.06748 10.4963C7.01013 11.0606 8.02584 11.3459 9.12289 11.323L9.12323 11.323C10.1102 11.3051 11.0739 11.0205 11.9116 10.4995L11.912 10.4992C11.9707 10.4631 12.0336 10.4355 12.1048 10.4314C12.1771 10.4272 12.2432 10.4478 12.3071 10.4811C14.6726 11.7103 16.0668 13.6398 16.4273 16.2916C16.4504 16.4614 16.4595 16.6321 16.4676 16.7979C16.4682 16.8085 16.4687 16.819 16.4692 16.8296C16.4768 16.9857 16.4841 17.1372 16.5014 17.2871L16.5015 17.2872C16.5403 17.6266 16.8668 17.8904 17.2109 17.8715C17.5746 17.8477 17.861 17.5661 17.8745 17.2267L17.8745 17.2258C17.8845 17.0137 17.8808 16.8011 17.8637 16.5894C17.596 13.5033 16.146 11.1514 13.5073 9.52329L13.5703 9.42115ZM13.5703 9.42115C16.2414 11.0692 17.7124 13.4553 17.9833 16.5793L13.522 9.24716C13.5189 9.24511 13.5156 9.24301 13.5123 9.24086L13.4473 9.34175L13.5407 9.4171C13.5433 9.4139 13.5458 9.41071 13.5484 9.40751C13.5557 9.41215 13.563 9.41668 13.5703 9.42115ZM8.97813 9.92241L8.98987 9.92243C10.1056 9.92443 11.1766 9.48445 11.9676 8.69906C12.7585 7.91366 13.2048 6.84705 13.2083 5.7335C13.2083 5.73349 13.2083 5.73349 13.2083 5.73348L13.0882 5.73311C13.0955 3.46851 11.2685 1.62775 9.00854 1.62353L8.97813 9.92241ZM8.97813 9.92241L8.97605 9.922M8.97813 9.92241L8.97605 9.922M4.78998 5.69507C4.79869 3.37645 6.68928 1.49878 9.00878 1.50352L8.96468 9.91973L8.96661 9.92011L8.97605 9.922M4.78998 5.69507L4.91 5.69552L4.78998 5.6948C4.78998 5.69489 4.78998 5.69498 4.78998 5.69507ZM4.78998 5.69507C4.78668 6.24786 4.89272 6.79585 5.10201 7.30767C5.31134 7.81956 5.61984 8.28519 6.00981 8.67788C6.39979 9.07057 6.86358 9.38259 7.3746 9.59608C7.882 9.80807 8.42606 9.91877 8.97605 9.922" fill="#828282" stroke="white" stroke-width="0.240035"/>
</svg>
